<svg xmlns="http://www.w3.org/2000/svg" viewBox="0 0 512 512">
  <rect width="512" height="512" rx="112" fill="#fff7e8"/>
  <circle cx="256" cy="256" r="178" fill="#f6b73c"/>
  <path d="M169 198c0-35 28-63 63-63h48c35 0 63 28 63 63v134c0 25-20 45-45 45h-84c-25 0-45-20-45-45V198Z" fill="#fffdf7"/>
  <path d="M208 206c0-15 12-27 27-27h42c15 0 27 12 27 27v17h-96v-17Z" fill="#52321f"/>
  <path d="M207 250h98v70c0 13-11 24-24 24h-50c-13 0-24-11-24-24v-70Z" fill="#ffd86b"/>
  <path d="M335 222h20c24 0 43 19 43 43s-19 43-43 43h-20v-35h18c5 0 9-4 9-9s-4-9-9-9h-18v-33Z" fill="#fffdf7"/>
  <path d="M154 378h204" stroke="#52321f" stroke-width="26" stroke-linecap="round"/>
</svg>
